<svg xmlns="http://www.w3.org/2000/svg" width="40" height="40" viewBox="0 0 40 40"><clipPath id="a"><path d="m36.6666667 0c1.8409491 0 3.3333333 1.49238417 3.3333333 3.33333333v33.33333337c0 1.8409491-1.4923842 3.3333333-3.3333333 3.3333333h-33.33333337c-1.84094916 0-3.33333333-1.4923842-3.33333333-3.3333333v-33.33333337c0-1.84094916 1.49238417-3.33333333 3.33333333-3.33333333z"/></clipPath><clipPath id="b"><path d="m9.33333333 0c.73637967 0 1.33333337.59695367 1.33333337 1.33333333v8c0 .73637967-.5969537 1.33333337-1.33333337 1.33333337h-8c-.73637966 0-1.33333333-.5969537-1.33333333-1.33333337v-8c0-.73637966.59695367-1.33333333 1.33333333-1.33333333z"/></clipPath><g clip-path="url(#a)"><path fill="none" stroke="#c6cc00" stroke-miterlimit="5" stroke-width="9.333" d="m3.33333333 0h33.33333337c1.8409491 0 3.3333333 1.49238417 3.3333333 3.33333333v33.33333337c0 1.8409491-1.4923842 3.3333333-3.3333333 3.3333333h-33.33333337c-1.84094916 0-3.33333333-1.4923842-3.33333333-3.3333333v-33.33333337c0-1.84094916 1.49238417-3.33333333 3.33333333-3.33333333z"/></g><g clip-path="url(#b)" transform="translate(14.667 14.667)"><path fill="#c6cc00" d="m0 0h10.6666667v10.6666667h-10.6666667z"/></g></svg>